<?xml version="1.0" standalone="no"?><!DOCTYPE svg PUBLIC "-//W3C//DTD SVG 1.1//EN" "http://www.w3.org/Graphics/SVG/1.1/DTD/svg11.dtd"><svg t="1584095072660" class="icon" viewBox="0 0 1024 1024" version="1.1" xmlns="http://www.w3.org/2000/svg" p-id="843" xmlns:xlink="http://www.w3.org/1999/xlink" width="200" height="200"><defs><style type="text/css"></style></defs><path d="M907.484863 315.371922c9.035294-15.861961 0.983843-35.237647-16.725334-39.654902C817.553569 257.425569 752.941176 194.901333 752.941176 120.470588h-582.274509c-44.172549 0-80.313725 36.141176-80.313726 80.313726v200.784313c62.785255 62.785255 62.785255 158.07749 0 220.862746v62.925803c0 29.916863 13.633255 59.171137 38.731294 75.454746 47.766588 31.001098 73.165804 86.738824 68.788706 144.926117-1.546039 20.399686 14.095059 37.948235 34.554981 37.948236H853.333333c44.172549 0 80.313725-36.141176 80.313726-80.313726V508.265412a160.567216 160.567216 0 0 1-26.162196-192.89349z" fill="#FFDB2B" p-id="844"></path><path d="M746.817255 1024h-469.63451a26.202353 26.202353 0 0 1-26.202353-26.202353V943.686275h522.039216v54.111372c0 14.476549-11.725804 26.202353-26.202353 26.202353zM397.653333 0h228.673255c14.496627 0 26.222431 11.725804 26.222432 26.202353V120.470588h-281.09804V26.202353C371.45098 11.725804 383.176784 0 397.653333 0z" fill="#FEC722" p-id="845"></path><path d="M431.686275 421.647059h-200.784314l100.392157-160.627451zM793.098039 421.647059h-200.784314l100.392157-160.627451z" fill="#E64C3C" p-id="846"></path><path d="M351.372549 603.276549c-44.493804-5.702275-58.026667 13.552941-80.313725 100.392157-17.086745 66.580078 100.311843 141.733647 101.436235 140.549019 98.524863-103.403922 183.436549-89.108078 279.009882 0 1.184627 1.104314 118.52298-73.968941 101.436235-140.549019-22.287059-86.839216-35.819922-106.094431-80.313725-100.392157-100.010667 12.830118-221.244235 12.830118-321.254902 0z" fill="#FFFFFF" p-id="847"></path><path d="M371.45098 863.372549a20.078431 20.078431 0 0 1-20.078431-20.078431V622.431373a20.078431 20.078431 0 1 1 40.156863 0v220.862745a20.078431 20.078431 0 0 1-20.078432 20.078431zM652.54902 863.372549a20.078431 20.078431 0 0 1-20.078432-20.078431V622.431373a20.078431 20.078431 0 1 1 40.156863 0v220.862745a20.078431 20.078431 0 0 1-20.078431 20.078431zM512 783.058824a20.078431 20.078431 0 0 1-20.078431-20.078432v-140.549019a20.078431 20.078431 0 1 1 40.156862 0v140.549019a20.078431 20.078431 0 0 1-20.078431 20.078432z" fill="#ECF0F1" p-id="848"></path><path d="M732.862745 722.823529h-441.72549a20.078431 20.078431 0 1 1 0-40.156862h441.72549a20.078431 20.078431 0 1 1 0 40.156862z" fill="#ECF0F1" p-id="849"></path><path d="M372.454902 864.316235c-15.199373 0-68.98949-43.369412-94.328471-76.057098-24.676392-31.804235-33.591216-61.941961-26.503529-89.569882 20.279216-79.048784 35.538824-123.863843 102.319686-115.33051 96.476863 12.388392 219.678118 12.388392 316.154981 0 66.800941-8.513255 82.040471 36.341961 102.319686 115.310431 7.107765 27.648-1.827137 57.785725-26.483451 89.589961-25.379137 32.687686-79.149176 76.057098-94.348549 76.057098-5.079843 0-10.039216-1.967686-13.753726-5.441255-48.268549-44.995765-90.734431-66.881255-129.766902-66.881255-39.072627 0-78.667294 21.604392-121.012705 66.05804-3.814902 3.995608-9.115608 6.264471-14.59702 6.26447z m135.589647-112.479372c47.003608 0 93.645804 21.504 145.889882 67.463529 28.431059-19.656784 89.509647-71.94102 79.570824-110.672314C712.382745 626.42698 702.08251 622.431373 685.638275 622.431373c-3.232627 0-6.706196 0.281098-10.460863 0.76298-99.769725 12.789961-226.585098 12.789961-326.354824 0a82.803451 82.803451 0 0 0-10.460863-0.76298c-16.424157 0-26.744471 3.995608-47.846901 86.236862-9.85851 38.410039 50.135843 90.172235 78.868078 110.150275 46.361098-45.035922 91.838745-66.981647 138.661647-66.981647z" fill="#F0C419" p-id="850"></path></svg>